{"title":"Frozen.2013.DVDSCR.XViD.AC3-FiNGERBLaST","uid":9448191,"size":1551765964,"categoryP":"video","categoryS":"movies","magnet":"?xt=urn:btih:3535a1a6375a619507141c7975611740455e1954&amp;dn=Frozen.2013.DVDSCR.XViD.AC3-FiNGERBLaST&amp;tr=udp%3A%2F%2Ftracker.openbittorrent.com%3A80&amp;tr=udp%3A%2F%2Fopen.demonii.com%3A1337&amp;tr=udp%3A%2F%2Ftracker.coppersurfer.tk%3A6969&amp;tr=udp%3A%2F%2Fexodus.desync.com%3A6969","seeders":530,"leechers":47,"uploader":"Acesn8s","files":-1,"time":1389127106,"description":"Frozen.2013.DVDSCR.XViD.AC3-FiNGERBLaST\n\n**********************************************************************************\n\nGeneral\nComplete name                            : Frozen.2013.DVDSCR.XViD.AC3-FiNGERBLaST\nFormat                                   : AVI\nFormat/Info                              : Audio Video Interleave\nFile size                                : 1.43 GiB\nDuration                                 : 1h 40mn\nOverall bit rate                         : 2 031 Kbps\nWriting library                          : VirtualDub build 30091/release\n\n**********************************************************************************\n\nVideo\nID                                       : 0\nFormat                                   : MPEG-4 Visual\nFormat profile                           : Advanced Simple@L5\nFormat settings, BVOP                    : 2\nFormat settings, QPel                    : No\nFormat settings, GMC                     : No warppoints\nFormat settings, Matrix                  : Default (H.263)\nMuxing mode                              : Packed bitstream\nCodec ID                                 : XVID\nCodec ID/Hint                            : XviD\nDuration                                 : 1h 40mn\nBit rate                                 : 1 572 Kbps\nWidth                                    : 720 pixels\nHeight                                   : 320 pixels\nDisplay aspect ratio                     : 2.25:1\nFrame rate                               : 29.970 fps\nColor space                              : YUV\nChroma subsampling                       : 4:2:0\nBit depth                                : 8 bits\nScan type                                : Progressive\nCompression mode                         : Lossy\nBits/(Pixel*Frame)                       : 0.228\nStream size                              : 1.11 GiB (77%)\nWriting library                          : XviD 64\n\n**********************************************************************************\n\nAudio\nID                                       : 1\nFormat                                   : AC-3\nFormat/Info                              : Audio Coding 3\nMode extension                           : CM (complete main)\nFormat settings, Endianness              : Big\nCodec ID                                 : 2000\nDuration                                 : 1h 40mn\nBit rate mode                            : Constant\nBit rate                                 : 448 Kbps\nChannel(s)                               : 6 channels\nChannel positions                        : Front: L C R, Side: L R, LFE\nSampling rate                            : 48.0 KHz\nBit depth                                : 16 bits\nCompression mode                         : Lossy\nStream size                              : 323 MiB (22%)\nAlignment                                : Aligned on interleaves\nInterleave, duration                     : 33 ms (1.00 video frame)\nInterleave, preload duration             : 512 ms\n\n**********************************************************************************\n\n\nPlot:Fearless optimist Anna teams up with Kristoff in an epic journey, encountering Everest-like conditions, and a hilarious snowman named Olaf in a race to find Anna's sister Elsa, whose icy powers have trapped the kingdom in eternal winter.  \n\nNotes\n\ntweaked Contrast Saturation RGB Colours Slightly Resized Sharpened  Sample Included..........\n\n &lt;a href=&quot;\nhttp://www.imdb.com/title/tt2294629/&quot; rel=&quot;nofollow&quot; target=&quot;_NEW&quot;&gt;\nhttp://www.imdb.com/title/tt2294629/&lt;/a&gt;\n\n**********************************************************************************\n\nScreens:\n &lt;a href=&quot;\nhttp://s23.postimg.org/jivs2aiaj/2_RHnt_Lj.jpg&quot; rel=&quot;nofollow&quot; target=&quot;_NEW&quot;&gt;\nhttp://s23.postimg.org/jivs2aiaj/2_RHnt_Lj.jpg&lt;/a&gt;\n &lt;a href=&quot;\nhttp://s23.postimg.org/we3rp1xjv/ant_Clkd.jpg&quot; rel=&quot;nofollow&quot; target=&quot;_NEW&quot;&gt;\nhttp://s23.postimg.org/we3rp1xjv/ant_Clkd.jpg&lt;/a&gt;\n &lt;a href=&quot;\nhttp://s23.postimg.org/idx4j66fv/gc_Trdm_Q.jpg&quot; rel=&quot;nofollow&quot; target=&quot;_NEW&quot;&gt;\nhttp://s23.postimg.org/idx4j66fv/gc_Trdm_Q.jpg&lt;/a&gt;\n &lt;a href=&quot;\nhttp://s23.postimg.org/75ixvdsm3/RW8_Reu_P.jpg&quot; rel=&quot;nofollow&quot; target=&quot;_NEW&quot;&gt;\nhttp://s23.postimg.org/75ixvdsm3/RW8_Reu_P.jpg&lt;/a&gt;\n &lt;a href=&quot;\nhttp://s23.postimg.org/4vq86vuaj/St6l_F1n.jpg&quot; rel=&quot;nofollow&quot; target=&quot;_NEW&quot;&gt;\nhttp://s23.postimg.org/4vq86vuaj/St6l_F1n.jpg&lt;/a&gt;","torrent":{"xt":"urn:btih:3535a1a6375a619507141c7975611740455e1954","amp;dn":"Frozen.2013.DVDSCR.XViD.AC3-FiNGERBLaST","amp;tr":["udp%3A%2F%2Ftracker.openbittorrent.com%3A80","udp%3A%2F%2Fopen.demonii.com%3A1337","udp%3A%2F%2Ftracker.coppersurfer.tk%3A6969","udp%3A%2F%2Fexodus.desync.com%3A6969"],"infoHash":"3535a1a6375a619507141c7975611740455e1954","infoHashBuffer":{"type":"Buffer","data":[53,53,161,166,55,90,97,149,7,20,28,121,117,97,23,64,69,94,25,84]},"announce":[],"urlList":[]}}